#!OML:ASF I:\Actors\actors\Patient Classification 2\Patient 1\Session 1\actor1.ASF
:FULLY-SPECIFIED
:DEGREES
302
root -0.812936 18.6403 4.79386 -0.899269 0.320435 -2.76138
lowerback 6.78073 2.77836 1.00296
upperback 0.524421 3.77268 -0.0670569
thorax -3.18475 1.86161 -0.983405
lowerneck -12.3416 -6.18893 -4.27453
upperneck 21.5897 -9.77471 8.74721
head 9.50099 -3.99872 2.53575
rclavicle 2.48978e-014 7.55382e-015
rhumerus 0.726616 56.8932 -79.1656
rradius 92.0668
rwrist 0.854189
rhand -37.1159 -26.858
rfingers 7.12502
rthumb -10.1865 -56.5914
lclavicle 2.48978e-014 7.55382e-015
lhumerus -30.8233 -53.9635 87.9623
lradius 95.4536
lwrist 1.90454
lhand -2.30165 -28.6051
lfingers 7.12502
lthumb 23.384 -0.00564851
rfemur 0 0 0
rtibia 0
rfoot 0 0
rtoes 0
lfemur -6.97669 -4.49396 -10.6714
ltibia 25.0126
lfoot -20.5837 12.3242
ltoes -55.7005
303
root -0.806749 18.6403 4.79856 -0.891355 0.261868 -2.80363
lowerback 6.6117 2.85144 1.00688
upperback 0.500431 3.87052 -0.01563
thorax -3.11626 1.91124 -0.932884
lowerneck -12.4299 -6.22083 -4.28262
upperneck 21.7211 -9.80367 8.64434
head 9.56041 -4.01677 2.4959
rclavicle -2.68359e-014 -1.98785e-015
rhumerus 1.09736 57.4169 -78.3572
rradius 90.9972
rwrist 0.740228
rhand -36.4018 -27.5429
rfingers 7.12502
rthumb -9.49751 -57.3089
lclavicle -2.68359e-014 -1.98785e-015
lhumerus -30.7241 -54.0454 87.9404
lradius 96.0839
lwrist 1.96834
lhand -3.71672 -29.5653
lfingers 7.12502
lthumb 22.026 -0.799521
rfemur 0 0 0
rtibia 0
rfoot 0 0
rtoes 0
lfemur -6.99538 -4.36381 -10.6328
ltibia 25.0855
lfoot -20.6398 12.3321
ltoes -55.7958
304
root -0.801386 18.6402 4.80166 -0.862133 0.243898 -2.80784
lowerback 6.42494 2.89725 0.931567
upperback 0.496565 3.92635 0.0497497
thorax -3.02436 1.94139 -0.818278
lowerneck -12.5999 -6.24383 -4.23995
upperneck 21.8259 -9.80925 8.4695
head 9.61752 -4.0259 2.42332
rclavicle -4.0403e-014 -3.57812e-015
rhumerus 1.79612 58.034 -77.2468
rradius 89.9732
rwrist 0.230128
rhand -34.0197 -29.6633
rfingers 7.12502
rthumb -7.19861 -59.5209
lclavicle -4.0403e-014 -3.57812e-015
lhumerus -30.6243 -54.0847 87.9244
lradius 96.755
lwrist 2.19133
lhand -5.76404 -30.6808
lfingers 7.12502
lthumb 20.0592 -1.69622
rfemur 0 0 0
rtibia 0
rfoot 0 0
rtoes 0
lfemur -7.06722 -4.2334 -10.6336
ltibia 25.1777
lfoot -20.6399 12.3016
ltoes -55.9174
305
root -0.79699 18.64 4.80407 -0.886259 0.253764 -2.76877
lowerback 6.32413 2.90014 0.808102
upperback 0.50343 3.92214 0.10272
thorax -2.97302 1.94174 -0.688986
lowerneck -12.6891 -6.22205 -4.17171
upperneck 21.8109 -9.75914 8.34176
head 9.61451 -4.00838 2.37202
rclavicle -9.14409e-015 -5.56597e-015
rhumerus 2.5836 58.5288 -76.2159
rradius 89.1404
rwrist -1.05929
rhand -29.4786 -32.3744
rfingers 7.12502
rthumb -2.81392 -62.3356
lclavicle -9.14409e-015 -5.56597e-015
lhumerus -30.6516 -54.0048 87.9412
lradius 97.3374
lwrist 2.61412
lhand -7.98245 -32.1054
lfingers 7.12502
lthumb 17.9257 -2.91152
rfemur 0 0 0
rtibia 0
rfoot 0 0
rtoes 0
lfemur -7.10199 -4.13044 -10.6864
ltibia 25.2772
lfoot -20.5842 12.2691
ltoes -56.0756
306
root -0.792955 18.6393 4.80493 -0.969136 0.236173 -2.74584
lowerback 6.34175 2.89425 0.78582
upperback 0.495926 3.91261 0.0915487
thorax -2.99146 1.93704 -0.688526
lowerneck -12.6456 -6.18349 -4.04859
upperneck 21.7238 -9.71055 8.28309
head 9.56251 -3.98603 2.33891
rclavicle -9.86469e-015 -3.18055e-015
rhumerus 2.93702 58.7054 -75.9004
rradius 88.482
rwrist -3.77018
rhand -23.9952 -34.8701
rfingers 7.12502
rthumb 2.48198 -64.8354
lclavicle -9.86469e-015 -3.18055e-015
lhumerus -30.7713 -53.9157 87.9598
lradius 97.6804
lwrist 3.09382
lhand -10.3853 -33.6593
lfingers 7.12502
lthumb 15.6126 -4.26932
rfemur 0 0 0
rtibia 0
rfoot 0 0
rtoes 0
lfemur -7.06623 -4.06275 -10.7278
ltibia 25.3679
lfoot -20.5556 12.2737
ltoes -56.1139
307
root -0.788614 18.6382 4.80557 -1.13015 0.170928 -2.78153
lowerback 6.4659 2.89118 0.913734
upperback 0.48626 3.9169 0.03047
thorax -3.05791 1.93647 -0.83006
lowerneck -12.6036 -6.16411 -3.942
upperneck 21.7082 -9.71441 8.31388
head 9.54587 -3.97783 2.33264
rclavicle -5.2181e-016 1.07344e-014
rhumerus 2.95085 58.6928 -76.1214
rradius 87.8536
rwrist -7.42165
rhand -20.0935 -36.9024
rfingers 7.12502
rthumb 6.24956 -66.7902
lclavicle -5.2181e-016 1.07344e-014
lhumerus -30.9207 -53.8519 87.9281
lradius 97.8479
lwrist 3.43433
lhand -13.6935 -36.286
lfingers 7.12502
lthumb 12.4246 -6.67529
rfemur 0 0 0
rtibia 0
rfoot 0 0
rtoes 0
lfemur -6.9154 -4.03274 -10.7165
ltibia 25.4504
lfoot -20.6155 12.2885
ltoes -56.0482
308
root -0.783862 18.6369 4.80629 -1.29858 0.101418 -2.85111
lowerback 6.58265 2.87454 1.09531
upperback 0.494112 3.90727 -0.0274721
thorax -3.09904 1.92849 -0.995979
lowerneck -12.6087 -6.15393 -3.88251
upperneck 21.7059 -9.72928 8.37663
head 9.54784 -3.97342 2.34235
rclavicle -1.38901e-014 -3.18055e-015
rhumerus 3.10171 58.781 -76.1812
rradius 87.3264
rwrist -10.3143
rhand -18.8418 -37.8498
rfingers 7.12502
rthumb 7.45785 -67.6983
lclavicle -1.38901e-014 -3.18055e-015
lhumerus -30.9971 -53.8146 87.8257
lradius 97.8142
lwrist 3.6262
lhand -15.1727 -37.2728
lfingers 7.12502
lthumb 10.9982 -7.58091
rfemur 0 0 0
rtibia 0
rfoot 0 0
rtoes 0
lfemur -6.7489 -4.01691 -10.6717
ltibia 25.522
lfoot -20.669 12.3145
ltoes -56.0483
309
root -0.779132 18.6348 4.80592 -1.41651 0.0651656 -2.86626
lowerback 6.61566 2.85403 1.15419
upperback 0.523311 3.88349 -0.0556015
thorax -3.08199 1.91601 -1.05633
lowerneck -12.6139 -6.14831 -3.82655
upperneck 21.6486 -9.72427 8.35833
head 9.52453 -3.97032 2.3271
rclavicle -1.85367e-014 -5.56597e-015
rhumerus 3.39577 59.12 -75.949
rradius 87.1107
rwrist -11.7566
rhand -19.5721 -38.0965
rfingers 7.12502
rthumb 6.75289 -67.9688
lclavicle -1.85367e-014 -5.56597e-015
lhumerus -30.8866 -53.8376 87.6805
lradius 97.444
lwrist 3.65544
lhand -16.3678 -38.2265
lfingers 7.12502
lthumb 9.84533 -8.47666
rfemur 0 0 0
rtibia 0
rfoot 0 0
rtoes 0
lfemur -6.6437 -3.97052 -10.6806
ltibia 25.5761
lfoot -20.6836 12.3259
ltoes -56.1276
